<?xml version="1.0" encoding="UTF-8" standalone="no"?><svg xmlns="http://www.w3.org/2000/svg" xmlns:xlink= "http://www.w3.org/1999/xlink" width="600" height="390" aria-label="A chart." style="overflow: hidden;"><defs id="_ABSTRACT_RENDERER_ID_42"><clipPath id="_ABSTRACT_RENDERER_ID_43"><rect x="115" y="75" width="371" height="241"></rect></clipPath></defs><rect x="0" y="0" width="600" height="390" stroke="none" stroke-width="0" fill="#ffffff"></rect><g><text text-anchor="start" x="115" y="52.05" font-family="Arial" font-size="13" font-weight="bold" stroke="none" stroke-width="0" fill="#000000">Graph Title</text><rect x="115" y="41" width="371" height="13" stroke="none" stroke-width="0" fill-opacity="0" fill="#ffffff"></rect></g><g><rect x="499" y="75" width="88" height="13" stroke="none" stroke-width="0" fill-opacity="0" fill="#ffffff"></rect><g><rect x="499" y="75" width="88" height="13" stroke="none" stroke-width="0" fill-opacity="0" fill="#ffffff"></rect><g><text text-anchor="start" x="530" y="86.05" font-family="Arial" font-size="13" stroke="none" stroke-width="0" fill="#222222">Series1</text></g><path d="M499,81.5L525,81.5" stroke="none" stroke-width="0" fill-opacity="1" fill="none"></path><circle cx="512" cy="81.5" r="4.5" stroke="none" stroke-width="0" fill="#3366cc"></circle></g></g><g><rect x="115" y="75" width="371" height="241" stroke="none" stroke-width="0" fill-opacity="0" fill="#ffffff"></rect><g clip-path="url(https://www.rapidtables.com/tools/scatter-plot.html#_ABSTRACT_RENDERER_ID_43)"><g><rect x="115" y="75" width="1" height="241" stroke="none" stroke-width="0" fill="#cccccc"></rect><rect x="189" y="75" width="1" height="241" stroke="none" stroke-width="0" fill="#cccccc"></rect><rect x="263" y="75" width="1" height="241" stroke="none" stroke-width="0" fill="#cccccc"></rect><rect x="337" y="75" width="1" height="241" stroke="none" stroke-width="0" fill="#cccccc"></rect><rect x="411" y="75" width="1" height="241" stroke="none" stroke-width="0" fill="#cccccc"></rect><rect x="485" y="75" width="1" height="241" stroke="none" stroke-width="0" fill="#cccccc"></rect><rect x="152" y="75" width="1" height="241" stroke="none" stroke-width="0" fill="#ebebeb"></rect><rect x="226" y="75" width="1" height="241" stroke="none" stroke-width="0" fill="#ebebeb"></rect><rect x="300" y="75" width="1" height="241" stroke="none" stroke-width="0" fill="#ebebeb"></rect><rect x="374" y="75" width="1" height="241" stroke="none" stroke-width="0" fill="#ebebeb"></rect><rect x="448" y="75" width="1" height="241" stroke="none" stroke-width="0" fill="#ebebeb"></rect><rect x="115" y="315" width="371" height="1" stroke="none" stroke-width="0" fill="#cccccc"></rect><rect x="115" y="267" width="371" height="1" stroke="none" stroke-width="0" fill="#cccccc"></rect><rect x="115" y="219" width="371" height="1" stroke="none" stroke-width="0" fill="#cccccc"></rect><rect x="115" y="171" width="371" height="1" stroke="none" stroke-width="0" fill="#cccccc"></rect><rect x="115" y="123" width="371" height="1" stroke="none" stroke-width="0" fill="#cccccc"></rect><rect x="115" y="75" width="371" height="1" stroke="none" stroke-width="0" fill="#cccccc"></rect></g><g><rect x="115" y="75" width="1" height="241" stroke="none" stroke-width="0" fill="#333333"></rect><rect x="115" y="315" width="371" height="1" stroke="none" stroke-width="0" fill="#333333"></rect></g></g><g><circle cx="115.5" cy="257.9" r="4.5" stroke="none" stroke-width="0" fill="#3366cc"></circle><circle cx="152.5" cy="286.7" r="4.5" stroke="none" stroke-width="0" fill="#3366cc"></circle><circle cx="189.5" cy="315.5" r="4.5" stroke="none" stroke-width="0" fill="#3366cc"></circle><circle cx="226.5" cy="286.7" r="4.5" stroke="none" stroke-width="0" fill="#3366cc"></circle><circle cx="263.5" cy="257.9" r="4.5" stroke="none" stroke-width="0" fill="#3366cc"></circle><circle cx="300.5" cy="229.10000000000002" r="4.5" stroke="none" stroke-width="0" fill="#3366cc"></circle><circle cx="337.5" cy="200.3" r="4.5" stroke="none" stroke-width="0" fill="#3366cc"></circle><circle cx="374.5" cy="171.5" r="4.5" stroke="none" stroke-width="0" fill="#3366cc"></circle><circle cx="411.5" cy="142.70000000000002" r="4.5" stroke="none" stroke-width="0" fill="#3366cc"></circle><circle cx="448.5" cy="113.9" r="4.5" stroke="none" stroke-width="0" fill="#3366cc"></circle><circle cx="485.5" cy="85.10000000000002" r="4.5" stroke="none" stroke-width="0" fill="#3366cc"></circle></g><g><g><text text-anchor="middle" x="115.5" y="335.05" font-family="Arial" font-size="13" stroke="none" stroke-width="0" fill="#444444">0</text></g><g><text text-anchor="middle" x="189.5" y="335.05" font-family="Arial" font-size="13" stroke="none" stroke-width="0" fill="#444444">100</text></g><g><text text-anchor="middle" x="263.5" y="335.05" font-family="Arial" font-size="13" stroke="none" stroke-width="0" fill="#444444">200</text></g><g><text text-anchor="middle" x="337.5" y="335.05" font-family="Arial" font-size="13" stroke="none" stroke-width="0" fill="#444444">300</text></g><g><text text-anchor="middle" x="411.5" y="335.05" font-family="Arial" font-size="13" stroke="none" stroke-width="0" fill="#444444">400</text></g><g><text text-anchor="middle" x="485.5" y="335.05" font-family="Arial" font-size="13" stroke="none" stroke-width="0" fill="#444444">500</text></g><g><text text-anchor="end" x="102" y="320.05" font-family="Arial" font-size="13" stroke="none" stroke-width="0" fill="#444444">0</text></g><g><text text-anchor="end" x="102" y="272.05" font-family="Arial" font-size="13" stroke="none" stroke-width="0" fill="#444444">2.5</text></g><g><text text-anchor="end" x="102" y="224.05" font-family="Arial" font-size="13" stroke="none" stroke-width="0" fill="#444444">5</text></g><g><text text-anchor="end" x="102" y="176.05" font-family="Arial" font-size="13" stroke="none" stroke-width="0" fill="#444444">7.5</text></g><g><text text-anchor="end" x="102" y="128.05" font-family="Arial" font-size="13" stroke="none" stroke-width="0" fill="#444444">10</text></g><g><text text-anchor="end" x="102" y="80.05" font-family="Arial" font-size="13" stroke="none" stroke-width="0" fill="#444444">12.5</text></g></g></g><g><g><text text-anchor="middle" x="300.5" y="368.05" font-family="Arial" font-size="13" font-style="italic" stroke="none" stroke-width="0" fill="#222222">hLabel</text><rect x="115" y="357" width="371" height="13" stroke="none" stroke-width="0" fill-opacity="0" fill="#ffffff"></rect></g><g><text text-anchor="middle" x="43.05" y="195.5" font-family="Arial" font-size="13" font-style="italic" transform="rotate(-90 43.05 195.5)" stroke="none" stroke-width="0" fill="#222222">vLabel</text><path d="M31.999999999999996,316L32.00000000000001,75L45.00000000000001,75L44.99999999999999,316Z" stroke="none" stroke-width="0" fill-opacity="0" fill="#ffffff"></path></g></g><g></g></svg>